<svg xmlns="http://www.w3.org/2000/svg" xmlns:xlink="http://www.w3.org/1999/xlink" width="327" height="163" viewBox="0 0 327 163"><defs><path id="a" d="M0 .155h326.465v162.551H0z"/><path id="c" d="M.694 2.905c0 1.6 3.418 2.898 7.632 2.898 4.214 0 7.63-1.298 7.63-2.898 0-1.601-3.416-2.898-7.63-2.898S.694 1.304.694 2.905z"/><path id="e" d="M.66.093h20.079v4.419H.66z"/><path id="g" d="M.66.093h20.079v4.419H.66z"/><path id="i" d="M.652 8.662c0 .971.752 1.756 1.679 1.756h16.744c.445 0 .871-.184 1.186-.512.314-.33.49-.776.49-1.244-.017-4.43-3.454-8.01-7.684-8.01H8.34V.616C4.095.616.652 4.218.652 8.662z"/><path id="k" d="M.652 8.662c0 .971.752 1.756 1.679 1.756h16.744c.445 0 .871-.184 1.186-.512.314-.33.49-.776.49-1.244-.017-4.43-3.454-8.01-7.684-8.01H8.34V.616C4.095.616.652 4.218.652 8.662z"/><path id="m" d="M.655.093h20.079v4.419H.655z"/><path id="o" d="M.655.093h20.079v4.419H.655z"/><path id="q" d="M8.36.643C4.116.643.674 4.247.674 8.69c0 .97.752 1.756 1.678 1.756h16.737c.447.003.875-.182 1.191-.512a1.8 1.8 0 00.494-1.244c0-4.444-3.441-8.046-7.687-8.046H8.36z"/><path id="s" d="M8.36.643C4.116.643.674 4.247.674 8.69c0 .97.752 1.756 1.678 1.756h16.737c.447.003.875-.182 1.191-.512a1.8 1.8 0 00.494-1.244c0-4.444-3.441-8.046-7.687-8.046H8.36z"/><path id="u" d="M.264 7.141c0 3.705 2.359 6.71 5.266 6.71 2.91 0 5.268-3.005 5.268-6.71S8.44.431 5.53.431C2.623.431.264 3.436.264 7.141z"/><path id="w" d="M.264 7.141c0 3.705 2.359 6.71 5.266 6.71 2.91 0 5.268-3.005 5.268-6.71S8.44.431 5.53.431C2.623.431.264 3.436.264 7.141z"/></defs><g fill="none" fill-rule="evenodd"><mask id="b" fill="#fff"><use xlink:href="#a"/></mask><path fill="#213569" fill-rule="nonzero" d="M306.671 85.141c-5.874-3.161-18.578-5.92-14.27-14.22 1.168-2.25 3.208-4.046 4.95-5.994 20.078-22.469-5.742-55.165-34.337-58.764-38.292-4.818-97.256 26.58-152.221 5.4C88.987 1.047 48.87-9.878 36.509 16.805c-3.732 8.058-3.756 17.044-2.792 25.693 1.216 10.895 3.72 22.658-2.45 32.2C27.085 81.164 19.615 85.383 13.1 90.17c-27.195 19.981-7.76 53.572 19.34 65.054 39.536 16.75 83.812.646 124.466-2.913 1.831-.16 3.66-.282 5.484-.368 42.362-2.001 82.747 15.015 125.026 5.803 12.234-2.665 24.861-6.96 32.254-15.846 9-10.817 7.978-26.745 3.182-38.775-3.772-9.458-8.744-13.978-16.18-17.985" mask="url(#b)"/><g fill-rule="nonzero"><path fill="#A6B2C7" d="M289.797 157.223c-99.548-49.118-220.736-9.653-249.15.85 37.45 11.868 78.572-2.402 116.53-5.722 1.827-.16 3.652-.281 5.472-.367 42.264-1.995 82.558 14.968 124.739 5.785.8-.174 1.605-.357 2.409-.546"/><path fill="#354777" d="M216.779 83.433l12.33 14.354c.007.008.016.016.022.025a1.074 1.074 0 001.187.395l19.688-6.081a.613.613 0 01.565.226.628.628 0 01-.098.878c-7.172 6.975-14.18 14.064-23.793 19.297a1.077 1.077 0 01-1.432-.062 1.087 1.087 0 01-.284-.435c-2.934-9.713-6.611-19.377-10.177-29.05a.632.632 0 01.176-.679.616.616 0 01.874.053l.942 1.08zm27.596-32.607c7.039 17.72 8.965 27.496 9.524 35.149a1.117 1.117 0 01-.78 1.369L231.78 93.05c-.19.05-.386.049-.573-.004a1.075 1.075 0 01-.524-.344.54.54 0 01-.04-.04l-14.969-16.086-.014-.014a1.117 1.117 0 01.078-1.558c9.507-7.552 18.34-16.008 26.824-24.93a1.08 1.08 0 011.082-.237c.434.148.711.55.73.988z"/><path fill="#DC6C00" d="M262.234 54.563c-1.467-.377-3.637-.982-4.324-1.162-5.647-1.49-8.806-8.832-6.896-16.362 1.908-7.525 7.656-12.235 13.338-10.9 1.541.366 3.622.836 5.1 1.228l-7.218 27.196z"/><path fill="#F5A522" d="M276.568 43.783c1.91-7.528-1.12-14.837-6.765-16.327-5.646-1.489-11.768 3.405-13.678 10.933-1.91 7.527 1.118 14.835 6.764 16.324 5.645 1.491 11.77-3.403 13.68-10.93"/><path fill="#FFF" d="M267.642 43.66c.508.486.822 1.04.525 1.58-.798 1.44-4.228.341-4.228.341l1.482-3.357s1.382.619 2.221 1.435m2.008-6.618c.333.4.546.891.383 1.45-.402 1.369-3.197.716-3.197.716l1.377-3.238s.885.403 1.437 1.072m2.667-3.271l-1.338-.716-.89 1.529-1.553-1.005.649-1.428-.92-.59-.986 1.81-1.81-.59-.588 1.675 1.539.469-4.8 10.256-1.838-.367-.848 1.764 2.409.693-.617 1.965 1.604.507.644-1.992 1.759.397-.886 2.102 1.413.523s.333-.482 1.006-2.023c1.527.667 8.44-2.06 2.328-6.869 3.18-.53 6.582-2.75 2.769-6.212.932-2.03.954-1.898.954-1.898"/><path fill="#DC6C00" d="M40.225 113.942l4.418 3.725c1.014.874-2.112 6.306-6.983 12.13-4.87 5.823-9.64 9.832-10.653 8.96l-4.425-3.82 17.643-20.995z"/><path fill="#F5A522" d="M40.111 113.752c1.014.877-2.115 6.307-6.984 12.13-4.87 5.823-9.64 9.836-10.652 8.96-1.014-.874 2.114-6.306 6.981-12.128 4.872-5.824 9.641-9.836 10.655-8.962"/><path fill="#FFF" d="M30.319 125.804c0 .307-.108.676-.457 1.073-.934 1.06-1.812.493-1.812.493l1.968-2.42s.302.34.3.854m3.56-4.737c-.02.25-.127.573-.425.973-.732.98-1.634.728-1.634.728l1.874-2.332s.217.21.185.63m2.483-2.471l-.313-.38-.996 1.123-.281-.564.838-1.029-.175-.327-1.123 1.31-.546-.265-.89 1.184.467.209-6.022 7.366-.553-.154-1.032 1.263.621.357-1.048 1.4.383.274 1.084-1.427.501.183-1.234 1.523.302.296s.337-.357 1.263-1.481c.299.386 4.295-1.995 3.844-4.956 1.554-.6 3.976-2.425 3.725-4.518 1.229-1.477 1.185-1.387 1.185-1.387"/><path fill="#7B1FA2" d="M291.347 125.38c-1.286.727-3.771 1.906-5.51 2.754-5.253 2.56-11.894-.8-15.399-7.764-3.508-6.967-2.027-14.864 3.16-17.564.812-.422 3.859-2.07 4.919-2.565l12.83 25.14z"/><path fill="#9012FE" d="M293.913 108.142c3.508 6.965 2.146 14.801-3.04 17.503-5.187 2.702-12.236-.755-15.74-7.72-3.508-6.965-2.148-14.802 3.04-17.502 5.184-2.703 12.234.754 15.74 7.72"/><path fill="#FFF" d="M281.331 117.395l5.67.553.01.001a.322.322 0 00.34-.162l3.014-5.42a.186.186 0 01.17-.069c.102.015.174.11.162.212-.107 3.01-.155 6.01-1.154 9.148a.324.324 0 01-.325.284.328.328 0 01-.152-.035c-2.66-1.5-5.472-2.837-8.262-4.196a.188.188 0 01-.102-.184.182.182 0 01.2-.17l.43.038zm-.792-12.832c5.221 2.385 7.675 4.11 9.39 5.657.003 0 .004.002.007.003a.337.337 0 01.109.457l-3.449 5.683a.323.323 0 01-.311.152h-.017l-6.605-.38-.005-.001a.337.337 0 01-.309-.355c.495-3.62.653-7.298.64-11.003a.328.328 0 01.185-.277.328.328 0 01.365.064z"/><path fill="#354777" d="M84.779 86.532c2.398-.153 4.513.31 5.144 2.19 1.682 5.02-9.24 10.344-9.24 10.344L76.01 88.758s4.778-1.972 8.769-2.226M73.287 67.93c1.736-.064 3.421.372 4.405 1.93 2.415 3.833-5.686 9.45-5.686 9.45l-4.62-9.782s3.01-1.492 5.9-1.598m-1.834-13.573l-4.747 2.286 1.65 5.322-5.96 2.199-1.928-4.365-3.502 1.378 2.048 5.876-5.581 3.581 2.615 4.489 4.69-3.002 13.384 31.211-5.331 3.23 2.217 5.305 7.546-3.65 3.32 5.416 5.166-2.226-3.352-5.65 5.232-2.928 3.075 6.537 4.743-1.782s-.394-1.807-2.623-6.755c5.345-1.829 14.806-24.51-11.475-20.35 6.091-9.055 8.378-22.887-8.758-19.79-2.798-6.53-2.43-6.333-2.43-6.333"/><path fill="#DC6C00" d="M112.585 66.585c1.099-.428 4.42-1.51 5.29-1.81 5.578-1.908 12.324 2.374 14.91 9.621 2.586 7.244.377 14.305-5.143 16.359-1.829.678-4.417 1.67-5.842 2.105l-9.215-26.275z"/><path fill="#F5A522" d="M107.545 83.033c2.587 7.246 9.204 11.573 14.78 9.665 5.576-1.91 7.999-9.33 5.412-16.574-2.586-7.248-9.203-11.574-14.78-9.666-5.575 1.908-8 9.329-5.412 16.575"/><path fill="#FFF" d="M119.863 79.945c.7-.065 1.325.058 1.537.637.57 1.545-2.505 3.42-2.505 3.42l-1.572-3.317s1.372-.64 2.54-.74m-3.696-5.847c.52.01 1.031.169 1.347.658.773 1.199-1.549 2.888-1.549 2.888l-1.55-3.161s.884-.405 1.752-.385m-.73-4.157l-1.417.544.574 1.674-1.776.516-.656-1.424-1.048.31.726 1.928-1.633.984.885 1.54 1.36-.856 4.623 10.337-1.48 1.15.78 1.796 2.1-1.37 1.083 1.753 1.433-.883-1.086-1.79 1.45-1.07 1.01 2.044 1.322-.725s-.146-.568-.873-2.085c1.503-.718 3.96-7.729-3.676-6.253 1.678-2.752 2.224-6.777-2.89-6.158-.926-2.031-.811-1.962-.811-1.962"/><path fill="#7B1FA2" d="M28.322 49.882c1.04.541 4.198 1.957 5.026 2.345 5.297 2.473 12.36-1.207 15.623-8.293 3.265-7.083 1.792-14.448-3.437-17.061-1.729-.864-4.177-2.12-5.535-2.7l-11.677 25.71z"/><path fill="#9012FE" d="M24.997 32.74c3.264-7.085 10.203-10.824 15.5-8.352 5.298 2.475 6.944 10.223 3.679 17.306-3.262 7.087-10.203 10.826-15.5 8.353-5.295-2.473-6.944-10.222-3.68-17.306"/><path fill="#FFF" d="M28.504 37.055l3.089 4.785c0 .005.004.007.005.01a.318.318 0 00.155.143.311.311 0 00.182.023l6.121-1.006a.186.186 0 01.094.348c-2.425 1.786-4.805 3.612-7.887 4.78a.324.324 0 01-.424-.078.315.315 0 01-.067-.142c-.475-3.016-1.177-6.05-1.843-9.079a.19.19 0 01.08-.195.185.185 0 01.259.051l.236.36zm9.567-8.593c1.372 5.574 1.546 8.568 1.4 10.872v.007a.336.336 0 01-.29.37l-6.597.828a.318.318 0 01-.313-.148l-.01-.016-3.804-5.41-.005-.004a.339.339 0 01.087-.462c3.146-1.862 6.127-4.021 9.023-6.334a.32.32 0 01.331-.026c.124.061.19.193.178.323z"/><path fill="#9BA5BB" d="M134.986 144.231c-.796 1.681-.479 3.827.769 5.207 1.291 1.424 3.353 1.94 5.272 1.806 1.916-.133 3.745-.826 5.553-1.483 3.331-1.21 6.722-2.328 10.227-2.866 11.127-1.706 22.309 2.507 33.566 2.54 1.844.005 4.333-.822 4.053-2.646-.183-1.2-1.529-1.8-2.697-2.135-8.271-2.38-17.032-2.214-25.639-2.029l-18.48.397c-2.864.062-5.257-.568-7.965-.951-1.991-.282-3.602-.077-4.66 2.16"/><path fill="#F4D3A6" d="M167.402 48.334h-5.872l1.192-6.808h3.482z"/></g><g transform="translate(156 48)"><mask id="d" fill="#fff"><use xlink:href="#c"/></mask><path fill="#B28B67" fill-rule="nonzero" mask="url(#d)" d="M-2.538 8.765H19.19V-2.957H-2.538z"/></g><path fill="#D0D6E1" fill-rule="nonzero" d="M140 145h20v-4h-20z"/><g transform="translate(140 141)"><mask id="f" fill="#fff"><use xlink:href="#e"/></mask><path fill="#D0D6E1" fill-rule="nonzero" mask="url(#f)" d="M-97.096 235.667h210.06v-426.791h-210.06z"/><mask id="h" fill="#fff"><use xlink:href="#g"/></mask><path fill="#D0D6E1" fill-rule="nonzero" mask="url(#h)" d="M-2.257 7.846h25.914V-3.24H-2.257z"/></g><path fill="#F2F2F2" fill-rule="nonzero" d="M147.648 134.034h4.704c4.21 0 7.63 3.654 7.648 8.174 0 .476-.176.932-.49 1.267a1.61 1.61 0 01-1.18.525h-16.66c-.923 0-1.67-.801-1.67-1.792 0-4.534 3.424-8.208 7.648-8.208v.034z"/><g transform="translate(140 133)"><mask id="j" fill="#fff"><use xlink:href="#i"/></mask><path fill="#F2F2F2" fill-rule="nonzero" mask="url(#j)" d="M-97.096 224.278h210.06v-391.225h-210.06z"/><mask id="l" fill="#fff"><use xlink:href="#k"/></mask><path fill="#F2F2F2" fill-rule="nonzero" mask="url(#l)" d="M-2.264 13.476H23.67V-2.439H-2.264z"/></g><path fill="#D0D6E1" fill-rule="nonzero" d="M169 145h20v-4h-20z"/><g transform="translate(168 141)"><mask id="n" fill="#fff"><use xlink:href="#m"/></mask><path fill="#D0D6E1" fill-rule="nonzero" mask="url(#n)" d="M-124.659 235.667H85.402v-426.791h-210.061z"/><mask id="p" fill="#fff"><use xlink:href="#o"/></mask><path fill="#D0D6E1" fill-rule="nonzero" mask="url(#p)" d="M-2.263 7.846h25.914V-3.24H-2.263z"/></g><path fill="#F2F2F2" fill-rule="nonzero" d="M187.324 145H170.67c-.922 0-1.669-.802-1.669-1.791 0-4.534 3.425-8.209 7.648-8.209h4.704c4.225 0 7.648 3.675 7.648 8.209 0 .477-.176.933-.491 1.27a1.61 1.61 0 01-1.185.521"/><g transform="translate(168 133)"><mask id="r" fill="#fff"><use xlink:href="#q"/></mask><path fill="#F2F2F2" fill-rule="nonzero" mask="url(#r)" d="M-124.659 224.278H85.402v-391.225h-210.061z"/><mask id="t" fill="#fff"><use xlink:href="#s"/></mask><path fill="#F2F2F2" fill-rule="nonzero" mask="url(#t)" d="M-2.244 13.502h25.933V-2.413H-2.244z"/></g><g fill-rule="nonzero"><path fill="#0091FF" d="M171.37 47.795h-14.629c-3.85 0-6.898 2.751-6.681 6.054l2.528 22.776c0 12.78 22.922 12.78 22.922 0l2.535-22.776c.222-3.277-2.832-6.054-6.675-6.054"/><path fill="#0091FF" d="M159.512 75.629h-.135c-3.108-.424-5.906 2.288-6.249 6.054l-10.485 56.742s8.136 3.691 16.579 1.837l5.164-57.093c.357-3.767-1.086-7.157-4.874-7.54"/><path fill="#0091FF" d="M168.956 75.741h.134c3.108-.423 5.906 2.287 6.25 6.055l10.483 56.742s-8.135 3.691-16.578 1.837l-5.164-57.093c-.356-3.767 1.086-7.157 4.875-7.54m-17.83-28.378c-9.335-9.07-28.234-22.09-28.234-22.09s-8.17 11.98-6.383 12.563c23.209 6.495 34.667 16.867 34.667 16.867s7.786.141-.05-7.34m26.215 0c9.333-9.07 28.233-22.09 28.233-22.09s8.17 11.98 6.383 12.563c-23.207 6.495-34.667 16.867-34.667 16.867s-7.786.141.05-7.34"/><path fill="#F4D3A6" d="M122.477 25.951s-3.748-6.34-3.235-8.005c.512-1.663-5.583-1.916-2.995 4.163.847 1.985-3.346-.895-3.346-.895s-8.187-4.344-8.783-.966c-.3 1.7 5.511 1.595 6.004 3.612.312 1.282-9.598-3.998-11.232-.876-1.635 3.125 7.038 2.111 9.143 5.906.807 1.457-8.502-2.762-8.867.749-.365 3.51 6.152.284 16.414 7.79 1.172.858 6.897-11.478 6.897-11.478m83.512 0s3.748-6.34 3.236-8.005c-.513-1.663 5.583-1.916 2.994 4.163-.847 1.985 3.346-.895 3.346-.895s8.187-4.344 8.783-.966c.3 1.7-5.51 1.595-6.003 3.612-.313 1.282 9.598-3.998 11.231-.876 1.634 3.125-7.037 2.111-9.143 5.906-.807 1.457 8.502-2.762 8.867.749.365 3.51-6.152.284-16.414 7.79-1.172.858-6.897-11.478-6.897-11.478M170.276 38.94c.21-1.216-.064-2.277-.611-2.37-.546-.094-1.16.815-1.369 2.03-.21 1.215.063 2.276.61 2.372.547.092 1.16-.816 1.37-2.032m-11.236 2.122c.548-.094.821-1.156.61-2.371-.21-1.216-.822-2.125-1.369-2.031-.547.095-.82 1.156-.61 2.37.209 1.217.822 2.126 1.37 2.032"/><path fill="#F4D3A6" d="M164.029 44.387c2.74 0 4.961-2.916 4.961-6.511 0-3.597-2.22-6.511-4.961-6.511s-4.962 2.914-4.962 6.51c0 3.596 2.22 6.512 4.962 6.512"/></g><g transform="translate(159 30)"><mask id="v" fill="#fff"><use xlink:href="#u"/></mask><path fill="#F4D3A6" fill-rule="nonzero" mask="url(#v)" d="M-128.079 335.972h231.177V-62.364h-231.177z"/><mask id="x" fill="#fff"><use xlink:href="#w"/></mask><path fill="#F4D3A6" fill-rule="nonzero" mask="url(#x)" d="M-2.947 16.961h16.955V-2.681H-2.947z"/></g><g fill-rule="nonzero"><path fill="#E65135" d="M161.51 43.64c.243.064.501.036.752.094.355.085.662.278 1.022.354a2.915 2.915 0 001.659-.128c.24-.093.52-.378.76-.418.237-.038.505.184.717.098a.398.398 0 00.146-.12c.664-.754 1.337-1.565 1.715-2.512.498-1.054.995-2.389.995-3.563 0 0-.13-2.723.88-2.882 1.01-.158 1.468-.983.977-1.71 0 0-.063-.539.033-.76.1-.223.458-1.205-.75-1.205 0 0-.26-.158-.325-.727-.066-.572-.359-1.426-1.467-1.426 0 0-.326.222-.62.158-.294-.063.097-1.489-1.01-1.489-1.109 0-2.186.349-2.544.222-.359-.126-1.727-.982-2.348-.507-.62.476-.586.982-1.434 1.015-.848.03-2.152.474-2.12 1.297.033.825.359.887-.13 1.965-.489 1.077-1.337 5.162.717 9.058.346.629.73 1.241 1.138 1.83.268.384.59.974.983 1.242a.813.813 0 00.254.114"/><path fill="#C3A985" d="M226.527 23.097c1.072 1.837-1.318 2.027-1.318 2.027-5.69 1.265-7.712 3.292-7.712 4.109 0 .83 3.028.19 3.028.19l.502-.231c1.086-.177 2.974-.708 4.644-.884 1.888 2.707-1.222 3.074-1.222 3.074-6.45 1.401-10.36 3.55-10.36 3.55-1.1.572-2.051 1.062-2.839 1.47l-.095-.177c-1.358-2.054-5.377-10.27-5.377-10.27.19-.327 3.707-6.367 3.205-7.986-.109-.381.122-.68.516-.857.61 1.782-.028 4.992-.028 5.795 0 .626 1.358.109 2.404-.395-.095 1.17 3.435-1.265 3.435-1.265s3.124-1.66 5.65-2.135c1.086 2.054-.408 1.768-3.395 3.033-3.287 1.401-2.024 2.027-1.644 2.15.11.04 1.019-.191 2.227-.531a.552.552 0 00-.067.122c-.218.898 4.535-1.4 7.984-1.809l.462 1.02z"/><path fill="#0074CC" d="M211.155 36.225l.095.177a95.216 95.216 0 01-2.974 1.442c-17.666 5.74-26.805 11.4-30.797 14.366l-2.01-2.993a24.38 24.38 0 011.698-1.796c9.315-9.073 28.176-22.106 28.176-22.106s.163.245.435.64c0 0 4.019 8.216 5.377 10.27"/><path fill="#A7ABB3" d="M184.934 138.973c.882 1.687 1.1 3.89 1.086 5.74-.923 0-13.416-.04-15.548 0-2.2.028-2.525-.856-2.525-.856h-.014v-1.238h.04a7.9 7.9 0 01.992-3.51l.122 1.429s7.523 2.108 15.82-1.551l.027-.014z"/><path fill="#949AA6" d="M170.472 144.714c2.132-.04 14.625 0 15.548 0 0 .707-.027 1.36-.081 1.918h-18.006v-2.775h.014s.326.884 2.525.857"/><path fill="#0074CC" d="M184.934 138.973l-.027.014c-8.297 3.66-15.82 1.55-15.82 1.55l-.122-1.428-4.766-52.795h-.231l-.991 10.964-1.304-10.964h-.448l-4.793 52.89c.38.245.624.817.8 1.538-8.01 1.088-14.732-2.231-14.732-2.231l.475-2.218 10.035-54.51c.04-.462.122-.91.23-1.333-.488-1.088-.773-2.326-.773-3.727l-2.526-22.8c0-.027.013-.054.013-.068-3.367-2.68-14.461-10.624-33.485-15.97-.231-.068-.285-.327-.231-.721 0 0 3.53-5.4 5.893-10.366l.027-.041c13.892 9.373 27.796 22.364 27.796 22.364l1.78-.98c.298.314.583.613.828.899a7.377 7.377 0 014.046-1.184h7.224v.027l2.689-.027h4.684c1.644 0 3.11.53 4.264 1.36l2.01 2.993c-1.806 1.347-2.553 2.15-2.553 2.15s-1.887 18.215-2.145 21.453c-.245 3.224-.815 4.353-.815 4.353l10.415 56.441c1.195.422 2.01 1.292 2.553 2.367"/><path fill="#C3A985" d="M163.167 43.788l.666 4.068h-2.58l.678-3.945a1.046 1.046 0 01-.176-.123c.394.164.964.286 1.412 0"/><path fill="#A7ABB3" d="M139.431 143.558h-.108v-.939h.04a7.928 7.928 0 013.612-6.326l-.475 2.218s6.722 3.319 14.733 2.23c.285 1.17.34 2.749.34 4.027h-.041l-16.2-.054c-1.847 0-1.9-1.048-1.9-1.156"/><path fill="#949AA6" d="M157.532 144.768h.04a29.6 29.6 0 01-.054 1.864h-18.195v-3.075h.108c0 .109.055 1.156 1.901 1.156l16.2.055z"/><path fill="#C3A985" d="M122.158 26.757l-.027.04c-2.362 4.966-5.893 10.366-5.893 10.366-.299.3-.543.436-.693.313-10.238-7.509-16.742-4.285-16.376-7.795.353-3.523 9.655.708 8.84-.748-2.105-3.809-10.754-2.789-9.125-5.917.435-.844 1.48-1.061 2.757-.98 1.86.884 4.073 1.877 4.888 2.013.774.123 1.086-.176 1.209-.49 1.453.463 2.457.763 2.362.327-.502-2.013-6.3-1.904-6.002-3.605.123-.666.544-1.034 1.127-1.183 2.2 1.006 6.478 2.952 7.686 3.564.828.408 1.114-.068 1.182-.64 1.167.68 2.647 1.375 2.118.123-.91-2.122-.747-3.469-.177-4.258 1.399 4.068 3.64 8.053 3.64 8.053l.434-.557c.679.449 1.371.897 2.05 1.374"/></g></g></svg>