<svg xmlns="http://www.w3.org/2000/svg" width="332" height="164" viewBox="0 0 332 164"><g fill="none"><path fill="#213569" d="M327.366 68.565a53.62 53.62 0 00-4-10.467c-.142-.278-.274-.57-.419-.846a51.023 51.023 0 00-1.627-2.833c-.076-.121-.142-.248-.219-.369-.343-.548-.718-1.065-1.08-1.596-9.583-13.818-26.744-22.686-44.988-26.458a108.05 108.05 0 00-7.028-1.133c-11.214-1.283-22.199-.188-33.189 1.11-6.274 1.194-64.296 15.913-81.884 3.63-10.814-7.55-24.917-9.985-37.786-11.193-20.572-1.932-39 3.123-57.497 11.817C54.675 34.315 38.7 36.793 29 44 24.553 47.305 9.447 61.12 5.915 69.33c-11.764 27.354 3.477 67.84 39.1 75.26 15.325 3.192 44.343 3.506 58.372-4.543.01-.006 22.63-12.98 62.541 6.68 26.754 13.183 57.578 19.686 88.22 16.136 13.558-1.58 27.434-4.696 39.6-10.378 21.331-9.978 37.402-27.824 37.222-59.005-.049-7.332-.798-13.898-2.113-19.804a101.99 101.99 0 01-1.491-5.111z"/><path fill="#0B1C49" d="M219.906 115.208C178.786 118.093 170.31 142.161 169 148c17.663 8.183 37.036 13.644 57 15 9.28.63 19.722 1.075 29 0 13.557-1.58 26.833-5.318 39-11 14.865-6.953 26.918-18.073 32.952-34.52-20.28-1.564-70.428-4.84-107.046-2.272z"/><path fill="#F2F2F2" d="M298.001 121.45s-1.537 17.642-7.233 17.642h-13.261c-5.578 0-7.168-16.9-7.233-17.618 14.92-.023 27.286-.023 27.286-.023s.158-.024.423-.077l.018.077z"/><path fill="#D0D6E1" d="M212.785 108.637s-3.287 4.435 0 7.067c3.293 2.626 13.154 2.297 13.154 2.297s10.686 0 11.67-4.929l-.118-4.517v-.03h3.186l-.323 4.382s-1.426 4.381 6.903 4.822c8.33.435 20.713.984 20.384-4.163l-.526-5.04h3.848v.029l-.124 4.517c.984 4.929 11.669 4.929 11.669 4.929s9.867.329 13.154-2.297c3.287-2.632 0-7.067 0-7.067v-.112h.972c.813 1.043 4.318 5.67 5.09 8.763.718 2.88-2.551 3.84-3.74 4.087-.266.052-.425.075-.425.075s-12.365 0-27.286.025c-.725 0-1.461 0-2.197.005-9.202.005-19.175.03-27.711.07-.524 0-1.048 0-1.561.006-7.016.03-12.924.065-16.43.118-5.407.077-8.936.154-11.256.112-4.177-.076-4.46-.535-4.742-2.085-.437-2.413 4.382-8.984 4.382-8.984l.942-2.192h1.085v.112z"/><path fill="#152644" d="M295.662 108.637s3.287 4.435 0 7.067c-3.287 2.626-13.154 2.297-13.154 2.297s-10.686 0-11.67-4.929l.124-4.517v-.03h24.7v.112z"/><path fill="#F2F2F2" d="M240.365 121.55c8.536-.04 18.51-.064 27.711-.07-.07.842-1.674 17.613-7.229 17.613h-13.265c-5.45 0-7.087-16.135-7.217-17.542"/><path fill="#152644" d="M267.64 113.566c.33 5.147-12.052 4.6-20.382 4.163-8.33-.44-6.904-4.822-6.904-4.822l.324-4.38h26.438l.524 5.039zm-30.15-5.01l.119 4.517c-.984 4.927-11.67 4.927-11.67 4.927s-9.861.33-13.154-2.297c-3.287-2.63 0-7.065 0-7.065v-.112h24.706v.03z"/><path fill="#F2F2F2" d="M238.804 121.557c-.136 1.454-1.78 17.536-7.222 17.536h-13.26c-5.232 0-6.958-14.88-7.204-17.306 2.32.04 5.85-.036 11.257-.112 3.505-.054 9.414-.089 16.429-.118"/><path fill="#6B8C53" d="M285.394 89.71c-.366-.666-.802-1.252-1.328-1.575-2.138-1.316-11.754-7.806-12.658-10.6 0 0 7.48 6.327 11.178 8.382 1.494.83 2.64 1.712 3.441 2.627-.328-4.117-.218-11.116-.317-12.898-.164-2.959-3.37-12.325-3.37-12.325s0-1.233 2.795 5.669c2.24 5.533 2.367 16.08 2.33 20.049.13.019.242.056.338.11 3.005-4.118 10.577-13.983 14.347-14.243 0 0-3.371 2.793-8.548 8.381-2.075 2.238-3.938 4.937-5.3 6.957.036.454.002 1.02-.044 1.67-.164 2.3-2.055 5.834-.493 21.28 0 0-2.301 2.547-3.698.987l-.083-1.562s-.735-19.911 1.41-22.91zm-31.783 21.346s5.726-23.927-9.137-40.418l-3.544-3.243s-3.137-2.299.545-1.083c3.681 1.218 12 17.438 12 17.438s6.408-15.544 10.498-16.355c0 0-8.727 13.382-8.727 15.275 0 1.893 3.546 15.68 2.59 28.657 0 0-3.68 2.298-4.225-.27zm-29.841-.25V95.803s-11.515-9.784-12.83-16.96c0 0 7.236 10.926 13.488 15.655l-1.317-31.471-3.125-9.948s4.277-1.304 5.757 25.276c1.48 26.58.33 13.697.33 13.697l9.046-8.479s-1.645 3.587-6.58 9.13l-1.15 17.775s1.15 4.892-3.62.326z"/><path fill="#F5A522" d="M275.302 90.15a8.496 8.496 0 003.83-11.39 8.498 8.498 0 10-3.83 11.39"/><path fill="#E59A2E" d="M263.552 79.587a9.835 9.835 0 00.948 3.537c2.324 4.823 8.084 6.752 12.866 4.304.666-.34 1.241-.687 1.752-1.077a8.459 8.459 0 01-3.816 3.8 8.496 8.496 0 01-11.391-3.83 8.473 8.473 0 01-.359-6.734z"/><path fill="#FFF" d="M273.246 83.159c.458-.057.87.006 1.013.347.382.912-1.65 2.025-1.65 2.025l-1.019-1.859s.893-.42 1.656-.513m-2.425-3.319c.331-.032.66.03.867.307.508.685-.978 1.819-.978 1.819l-1.002-1.762s.56-.31 1.113-.364m-.513-2.496l-.885.478.38.968-1.117.477-.421-.787-.656.296.462 1.065-1.027.728.555.804.864-.61 2.938 5.634-.984.661.488.959 1.404-.765.702.968.964-.473-.71-1.01.97-.603.667 1.176.888-.384s-.097-.33-.583-1.224c1.003-.398 2.548-4.715-2.444-3.64 1.06-1.75 1.335-4.342-1.915-3.572-.614-1.179-.54-1.146-.54-1.146"/><path fill="#F5A522" d="M286.495 74.113a6.997 6.997 0 004.811-8.649 6.998 6.998 0 10-13.46 3.837 6.997 6.997 0 008.65 4.812"/><path fill="#E59A2E" d="M288.247 73.343a6.997 6.997 0 01-10.138-8.634 7.95 7.95 0 00.312 2.74c1.21 4.11 5.479 6.595 9.826 5.894z"/><path fill="#FFF" d="M285.287 67.794c.362.021.67.132.73.43.16.798-1.573 1.407-1.573 1.407l-.51-1.66s.75-.212 1.353-.177m-1.38-3.054c.26.022.505.12.624.376.291.63-1.023 1.337-1.023 1.337l-.514-1.58s.478-.17.914-.133m-.028-2.106l-.752.26.15.844-.932.223-.209-.702-.55.146.2.936-.9.442.309.734.756-.37 1.434 5.014-.858.393.235.852 1.196-.417.399.888.813-.243-.399-.926.837-.349.34 1.056.742-.185s-.026-.283-.269-1.08c.834-.18 2.664-3.466-1.345-3.32 1.076-1.27 1.672-3.338-.949-3.185-.3-1.049-.248-1.011-.248-1.011"/><path fill="#F5A522" d="M293.544 83.562a7.001 7.001 0 009.124-10.619 7 7 0 10-9.124 10.619"/><path fill="#E59A2E" d="M297.54 71.275a7.569 7.569 0 00-1.78 1.469c-2.774 3.12-2.352 7.873.946 10.613 1.06.879 1.988 1.4 3.223 1.654a7 7 0 11-2.388-13.736z"/><path fill="#FFF" d="M298.345 79.5c.14.26.202.521.039.695-.435.466-1.552-.455-1.552-.455l.83-1.092s.45.423.683.853m1.34-2.31c.096.19.138.402.027.597-.274.481-1.276-.11-1.276-.11l.778-1.056s.31.252.47.569m1.316-.956l-.483-.403-.468.48-.537-.543.355-.456-.324-.313-.505.553-.661-.423-.332.54.555.356-2.552 3.22-.611-.415-.437.541.77.637-.39.671.497.451.415-.686.574.42-.521.706.431.429s.168-.146.566-.667c.467.494 3.313.29 1.522-2.406 1.255.177 2.81-.336 1.604-2.07.533-.674.532-.622.532-.622"/><path fill="#9012FE" d="M245.936 75.283a8.498 8.498 0 10-5.037-16.233 8.498 8.498 0 005.037 16.233"/><path fill="#7F26DD" d="M237.068 61.517a8.736 8.736 0 00.151 4.71c1.487 4.753 6.662 7.387 11.56 5.88.8-.245 1.48-.516 2.094-.863a8.498 8.498 0 11-13.805-9.727z"/><path fill="#FFF" d="M240.696 68.77l2.799.698.004.001a.166.166 0 00.108 0 .176.176 0 00.077-.053l1.95-2.413a.104.104 0 01.091-.02c.05.015.078.067.064.116-.297 1.457-.564 2.915-1.32 4.368a.162.162 0 01-.114.11.175.175 0 01-.146-.025c-1.212-.932-2.515-1.794-3.804-2.668a.092.092 0 01-.037-.097.094.094 0 01.115-.068l.213.05zm.642-6.31c2.425 1.558 3.518 2.582 4.251 3.466l.003.001c.071.06.079.163.02.231l-2.193 2.506a.15.15 0 01-.072.048.156.156 0 01-.096.003l-.007-.001-3.283-.684-.003-.001a.162.162 0 01-.126-.195c.542-1.726.92-3.506 1.212-5.311a.167.167 0 01.294-.062z"/><path fill="#9012FE" d="M259.197 70.322a6.001 6.001 0 109.054-7.878 6.001 6.001 0 00-9.054 7.878"/><path fill="#7F26DD" d="M264.939 60.508a6.042 6.042 0 00-2.78 1.33c-2.543 2.16-2.774 5.97-.516 8.509.77.864 1.47 1.391 2.5 1.73-.965.155-1.903.1-2.782-.177a6 6 0 013.578-11.392z"/><path fill="#FFF" d="M261.78 66.018l.334 1.981c0 .002 0 .003.002.005.001.023.01.048.03.067a.116.116 0 00.055.034l2.13.55a.07.07 0 01.039.051.066.066 0 01-.058.075c-1.037.229-2.066.475-3.231.412a.117.117 0 01-.103-.04.097.097 0 01-.024-.046.134.134 0 01-.003-.054c.269-1.04.465-2.117.673-3.188a.068.068 0 01.053-.05.066.066 0 01.077.053l.027.15zm4.313-1.4c-.335 1.991-.697 2.98-1.068 3.7l-.001.003a.118.118 0 01-.146.077l-2.26-.676a.114.114 0 01-.05-.032.101.101 0 01-.03-.06l-.002-.006-.478-2.285-.001-.002a.121.121 0 01.093-.137c1.284-.15 2.554-.418 3.819-.75a.115.115 0 01.124.169z"/><path fill="#9012FE" d="M213.496 85.542a5.998 5.998 0 10-3.133-11.58 5.998 5.998 0 003.133 11.58"/><path fill="#7F26DD" d="M207.219 76.037a5.645 5.645 0 00-.007 3.067c.878 3.15 4.28 5.001 7.596 4.13 1.129-.296 1.92-.68 2.68-1.431a6.058 6.058 0 01-.468 1.122 5.975 5.975 0 01-3.524 2.617 5.997 5.997 0 01-7.356-4.223 5.988 5.988 0 011.079-5.282z"/><path fill="#FFF" d="M209.88 80.72l1.971.563.003.002c.024.009.051.01.077.003a.11.11 0 00.055-.035l1.452-1.655a.068.068 0 01.065-.012.065.065 0 01.042.083c-.25 1.02-.477 2.045-1.055 3.05a.114.114 0 01-.082.075.128.128 0 01-.104-.02c-.837-.688-1.74-1.332-2.634-1.98a.065.065 0 01-.022-.07.067.067 0 01.082-.044l.15.04zm.624-4.439c1.683 1.16 2.432 1.912 2.931 2.554l.002.001a.113.113 0 01.006.164l-1.623 1.715a.116.116 0 01-.053.032.123.123 0 01-.069 0c-.001 0-.004 0-.006-.002l-2.314-.565s-.002 0-.002-.002a.116.116 0 01-.085-.141c.432-1.205.747-2.452 1.003-3.72a.116.116 0 01.086-.082.122.122 0 01.124.046z"/><path fill="#F5A522" d="M224.192 67.704a9.5 9.5 0 10-1.707-18.923 9.5 9.5 0 001.707 18.923"/><path fill="#E59A2E" d="M222.012 67.651a10.227 10.227 0 01-5.231-2.536 9.46 9.46 0 01-2.903-6.02 9.488 9.488 0 013.412-8.178 9.81 9.81 0 00-.506 4.108c.494 5.48 5.438 9.516 11.043 9.013 1.447-.13 2.595-.398 3.696-.97a9.488 9.488 0 01-7.331 4.636 9.531 9.531 0 01-2.18-.053z"/><path fill="#FFF" d="M224.413 59.041c.493.122.89.349.895.764.015 1.106-2.527 1.47-2.527 1.47l-.278-2.35s1.09-.087 1.91.116m-1.118-4.436c.354.098.666.294.764.666.24.916-1.754 1.52-1.754 1.52l-.3-2.242s.702-.106 1.29.056m.506-2.819l-1.104.153-.009 1.165-1.343.06-.108-.992-.793.05.034 1.3-1.354.36.237 1.06 1.138-.3.686 7.067-1.281.304.105 1.196 1.755-.246.32 1.29 1.183-.114-.31-1.339 1.24-.25.2 1.496 1.069-.052s.037-.386-.093-1.513c1.194-.023 4.56-3.938-1-4.782 1.808-1.414 3.16-4.024-.491-4.497-.143-1.478-.081-1.416-.081-1.416"/><path fill="#F5A522" d="M228.654 88.314a6.998 6.998 0 1012.64-6.014 7 7 0 00-12.64 6.014"/><path fill="#E59A2E" d="M237.764 78.89c-.92.069-1.83.303-2.677.693a7.448 7.448 0 00-3.59 10.107c.499 1.015 1.018 1.767 1.765 2.403a6.999 6.999 0 114.502-13.204z"/><path fill="#FFF" d="M233.966 86.782c.04.36-.017.682-.297.79-.748.286-1.628-1.321-1.628-1.321l1.527-.775s.333.707.398 1.306m2.737-1.855c.021.26-.034.517-.263.676-.564.388-1.468-.793-1.468-.793l1.45-.761s.246.442.281.878m2.04-.37l-.376-.698-.795.284-.374-.882.647-.32-.232-.518-.876.349-.579-.816-.662.423.488.687-4.633 2.225-.525-.78-.787.37.602 1.11-.796.538.37.761.834-.542.479.769-.97.505.304.703s.27-.072 1.004-.441c.313.792 3.809 2.062 3-1.865 1.413.855 3.522 1.107 2.936-1.453.97-.464.942-.408.942-.408"/><path fill="#B7C1D2" d="M213.359 91.821l-39.868 42.099-.088-5.875 35.524-36.959zm-39.819 44.723c.032 1.417-.237 2.9-.855 4.182-1.563 3.204-5.902 4.022-9.055 4.748-6.187 1.426-12.682 1.026-18.809-.478-5.759-1.414-12.266-3.574-16.478-7.919a13.193 13.193 0 01-1.663-2.09 8.812 8.812 0 01-.476-.823c-1.056-2.055-.436-4.606.303-6.67l13.917-34.542s.58 2.377 7.115 1.792c1.824-.175 4.116-.567 6.993-1.311 0 0 6.653-5.12 1.24-7.335a9.42 9.42 0 00-.79-.274l-.016-.07c4.59-1.338 10.078-2.49 15.57-2.626 0 0 1.464-.207 1.666 3.387.207 3.577 1.336 49.933 1.339 50.029"/><path fill="#152644" d="M147.535 94.715s2.057-5.338 8.222-8.58l.015-.038c5.413 2.217-1.24 7.336-1.24 7.336-2.877.744-5.17 1.136-6.993 1.311l-.004-.03z"/><path fill="#152644" d="M155.757 86.134c-6.166 3.242-8.222 8.58-8.222 8.58l.004.03c-6.534.584-7.114-1.793-7.114-1.793s.662-1.836 3.666-3.209c1.59-.729 5.651-2.47 10.875-3.988l.018.07a9.1 9.1 0 01.787.274l-.014.036z"/><path fill="#D0D6E1" d="M171.32 85.388l-14.848 7.658 12.763-2.942s-1.453 31.279 3.235 36.852l-1.15-41.568z"/><path fill="#0091FF" d="M78.762 86.378c-1.06-4.678-2.138-9.35-3.237-14.017-.754-3.197-1.082-8.727-3.982-10.616-7.222-4.712-19.136-4.388-27.464-4.33l-1.84.014c-9.382 3.09-11.496 14.266-11.496 14.266l2.768 69.1A52.242 52.242 0 0045.864 145c11.268 2.336 29.927 3.12 44.612.198-2.87-19.767-7.306-39.363-11.714-58.82"/><path fill="#CCAE89" d="M96.425 92.077s27.093-18.672 37.005-12.756c9.912 5.919 4.361 8.68 2.774 8.68-1.585 0-8.325-3.946-8.325-3.946s-2.378-2.892-31.454 8.022"/><path fill="#CCAE89" d="M106.983 83.166c28.783-7.74 27.832 4.44 27.832 4.44s1.194 7.695-3.964 7.103c0 0 .796 8.48-6.143 6.904 0 0-1.386 8.87-6.146 3.152 0 0-4.475-2.523-13.418-2.834-3.8-6.086.653-16.278 1.84-18.765"/><path fill="#0271CA" d="M105.144 101.931c-5.647-.197-13.064.48-22.262 3.23l-2.977-13.019 4.759-1.18c8.937-3.675 16.282-6.171 22.32-7.795-1.187 2.487-5.64 12.678-1.84 18.764"/><path fill="#2384D1" d="M85.876 118.964l-16.28-11.24-22.2-36.884-9.606 4.73s-.704 27.224 21.498 51.485c22.203 24.26 25.573 15.582 30.132 11.636.024-.019.042-.042.064-.063-1.067-6.572-2.29-13.127-3.608-19.664"/><path fill="#2384D1" d="M78.762 86.378c-1.06-4.678-2.138-9.35-3.237-14.017-.754-3.197-1.082-8.727-3.98-10.616-1.87-1.22-4.057-2.096-6.413-2.733-.327 1.136-.556 2.573-.556 4.398-2.793 1.201-7.32 1.316-7.32 1.316l-4.046 9.993 25.639 42.473 5.654-4.88c-1.83-8.674-3.788-17.319-5.741-25.934"/><path fill="#661F1F" d="M82.745 23.796S87.988 10.46 77.5 4.664c-10.488-5.797 5.244 19.132 5.244 19.132"/><path fill="#F3D2A5" d="M81.57 19.644c.024-.085-2.672-7.791-3.545-7.964-.875-.175-15.907 10.087-15.907 10.087s-2.47 10.744 3.448 13.165c-.59 2.2-1.5 4.337-3.02 5.527-1.662-1.49-4.159-2.553-7.912-2.3l-5.176 22.638s5.476 6.84 14.682 2.899l1.704-16.162h.005c6.763 7.355 15.343 8.278 17.446-7.597.807-6.09.072-14.503-1.724-20.293"/><path fill="#E3C59C" d="M65.844 47.535c0-.006-.008-.012-.01-.018-.005.001-.007-.004-.007-.004-.18-.13-1.493-1.104-2.228-2.752.052 3.345.515 6.882.876 9.178l.136.837a59.42 59.42 0 00.302 1.673l.93-8.914z"/><path fill="#6F2421" d="M80.37 9.708C79.224.636 64.753-.372 58.22 2.655 53.575 4.807 50.4 8.563 48.43 13.2c-3 7.054-2.368 13.018-9.495 17.451C31.4 35.34 26.72 42.092 26.196 51.14c-.168 2.905.056 5.97-1.28 8.558-2.164 4.191-7.531 5.58-10.728 9.055-3.355 3.646-3.828 9.39-1.764 13.889 2.064 4.497 6.323 7.761 11.017 9.384 2.678.926 8.148.677 8.148.677l-.743-20.908c4.41-17.308 19.327-14.153 19.327-14.153 1.046-3.089 2.769-8.484 9.586-13.527 6.817-5.044 5.929-9.64 5.929-9.64-4.034-5.468-2.782-9.753-2.782-9.753 2.36-3.738 4.107 2.783 4.107 2.783 1.049-5.217 7.57-8.048 7.57-8.048 3.475-2.01 6.288-5.78 5.787-9.75"/><path fill="#B7C1D2" d="M131.323 132.701l-17.218-.614s-7.424-.78-7.987-2.342c0 0 .81-26.119 18.057-47.615 0 0 .848-1.627 4.683 1.03 3.836 2.657 17.295 14.421 17.295 14.421l-.918 1.616-12.787-9.033s-14 19.173-15.349 38.058l15.506 1.988-1.282 2.491z"/><path fill="#D0D6E1" d="M123.998 129.845l-7.784-1.013s-1.37-10.517 11.671-33.566c0 0-11.13 11.672-14.502 34.907l10.615-.328z"/><path fill="#F4D3A6" d="M124.042 97.103s7.316-.615 6.352 6.593c-.93 6.913-6.468 5.203-6.916 5.048-.08.5 5.805 1.043 4.48 6.778-1.316 5.734-8.589 2.763-8.589 2.763s-5.738-2.002-11.308-1.336c.164-.954 3.3-19.66-5.79-23.923l-.034-.044c6.174-4.508 12.874-7.635 19.133-6.72 0 0 17.377 1.102 2.672 10.84"/><path fill="#0091FF" d="M102.27 93.026c9.091 4.263 5.956 22.969 5.79 23.923-2.823.325-5.608 1.338-7.583 3.638-5.876 6.843-14.888 18.802-22.884 14.227-3.235-1.852-5.642-5.783-7.777-8.697-3.733-5.115-7.164-10.45-10.53-15.81-6.281-9.988-12.918-20.138-18.272-30.662-.984-1.935-1.794-3.966-1.965-6.154-.089-1.156.01-2.362.569-3.384a7.26 7.26 0 012.748-2.84c2.381-1.377 5.488-1.39 8.102-.04 6.756 3.505 10.22 12.288 13.236 18.779 0 0 13.476 29.04 15.316 29.395 1.206.225 11.247-13.689 23.218-22.419l.033.044z"/><path fill="#0074CC" d="M31.59 92.703l-.738-20.815c3.709-16.758 19.384-14.435 19.384-14.435l-.827 3.425c2.954 3.822 7.564 3.969 7.564 3.969l-2.068 5.733c3.782 3.895 6.737 10.73 11.198 19.962 4.477 9.232 11.2 22.844 12.233 24.079 1.035 1.22 2.069.132 2.069.132l3.753-4.057c1.713-2.087 3.826-4.69 6.249-7.409 0 0 8.274-8.085 11.701-10.275 0 0 9.22 2.455 6.058 22.418l.014.132c-7.727.897-11.154 5.748-11.154 5.748-6.486 9.643-11.332 12.318-11.332 12.318l.148 1.117h-.045c-8.14 3.396-12.78-4.101-12.78-4.101l-18.659-28.195C41.578 81.93 39.17 74.887 39.17 74.887l-1.374.823c.754 11.32 6.043 27.254 6.043 27.254 5.363 16.61 24.023 34.045 31.44 38.455 6.87 4.072 10.917.53 11.479-.03l.606 4.367c-14.125 2.249-31.012 1.426-41.501-.75-4.432-.926-8.554-2.132-12.351-3.984L31.59 92.703z"/><path fill="#C3A985" d="M80.464 37.828c-.606 10.54-5.008 13.2-5.008 13.2-1.035.75-2.172 1.06-3.31 1.088-2.112-.779-4.284-2.396-6.294-4.586h-.014l-.222 2.25a23.37 23.37 0 01-3.014-2.382l-1.034 11.569a15.64 15.64 0 012.925.735l-.03.073-.413 3.837c-2.275 1.632-7.077 1.235-7.077 1.235s-4.61-.147-7.564-3.97l.827-3.424s1.655-6.91 9.382-13.26c0 0 5.969-3.38 6.175-9.849 0 0-5.038-5.953-2.26-10.26 0 0 1.551-2.352 3.398 3.292 0 0 .93-4.1 3.915-5.542 3-1.44 8.554-4.821 8.554-7.585l1.714 4.013v.015c-.325 3.278-1.61 5.748-1.61 5.748 1.108 6.012.96 13.803.96 13.803"/><path fill="#9F8C72" d="M132.144 80.223c4.122 1.91 3.99 4.513 3.99 4.513-.03 1.646-.917 2.425-1.877 2.778l-.044-.118s-5.097-3.822-7.225-5.262c-.813-.544-1.448-.632-1.92-.544l-.547-2.984a25.086 25.086 0 012.201-.338c1.448.19 2.556.632 5.422 1.955"/><path fill="#C3A985" d="M104.28 91.454c4.653-3.102 10.268-5.336 15.764-5.351.443 0 .871.015 1.314.059 2.63.22 5.201 1.073 7.388 2.528 4.003 2.617-2.305 6.924-4.374 8.085 0 0 2.867.75 3.325 1.058-.252.574-.562.72-.562.72s1.093 2.588-.074 5.322-6.604 3.352-6.604 3.352 4.063 3.013 5.023 4.66c.96 1.631-.073 5.938-5.407 4.777 0 0-2.63-.779-6.057-1.014-1.625-.191-2.556-.22-2.556-.22a21.45 21.45 0 00-3.28.132l-.015-.133c3.162-19.962-6.057-22.417-6.057-22.417a33.898 33.898 0 012.172-1.558"/><path fill="#9F8C72" d="M124.52 78.606l.547 2.984c-.753.176-1.093.823-1.093.823l-2.615 3.69v.058a13.116 13.116 0 00-1.315-.058c-5.496.014-11.11 2.249-15.764 5.35.221-.896 1.699-6.909 2.851-8.29v-.015c3.502-.956 6.575-1.588 9.249-2 2.777-1.131 5.555-2.043 8.14-2.542"/><path fill="#2160A5" d="M85.841 134.745l.916 6.644c-.56.559-4.61 4.101-11.48.03-7.416-4.41-26.076-21.845-31.439-38.456 0 0-5.289-15.934-6.042-27.253l1.374-.824s2.408 7.042 15.188 27.563l18.66 28.194s4.639 7.497 12.78 4.102h.043zm-1.787-24.476c.03.147.074.294.103.427l-3.752 4.057s-1.035 1.088-2.069-.132c-1.034-1.235-7.756-14.847-12.233-24.079-4.462-9.232-7.416-16.067-11.199-19.963l2.069-5.733s4.801.397 7.077-1.234l.413-3.837.03-.074c4.092 1.456 6.087 4.043 6.087 4.043l6.663 28.988 2.807-.617 2.881 12.318-2.778.941 1.212 5.278 2.305-2.176c.133.603.266 1.19.384 1.793"/><path fill="#52211D" d="M80.67 13.22c.532 1.735.606 3.484.444 5.042L79.4 14.25c0 2.764-5.555 6.145-8.554 7.585-2.985 1.44-3.915 5.542-3.915 5.542-1.847-5.645-3.399-3.293-3.399-3.293-2.777 4.307 2.26 10.26 2.26 10.26-.206 6.469-6.175 9.85-6.175 9.85-7.727 6.35-9.381 13.26-9.381 13.26S34.56 55.13 30.852 71.887l.739 20.815c-.06 0-5.482.25-8.156-.676-4.683-1.617-8.953-4.895-11.006-9.379-2.069-4.498-1.596-10.246 1.758-13.891 3.19-3.484 8.569-4.866 10.726-9.056 1.344-2.587 1.108-5.66 1.285-8.555.517-9.055 5.2-15.803 12.735-20.492 7.136-4.44 6.501-10.393 9.5-17.449 1.965-4.645 5.142-8.393 9.78-10.554 1.818-.838 4.24-1.353 6.812-1.485C76.652 4.091 79.164 8.281 80.67 13.22"/></g></svg>