<svg xmlns="http://www.w3.org/2000/svg" width="333" height="162" viewBox="0 0 333 162"><g fill="none" fill-rule="evenodd"><path fill="#213569" fill-rule="nonzero" d="M320.982 16.036c-27.772-32.007-77.976 3.2-102.543 12.27-16.137 5.956-36.88-.745-49.218-6.046-.609-.337-1.21-.657-1.828-1.01C141.338 6.264 110.887-1.799 80.117.871 42.843 4.087 2.683 19.582.156 70.88c-.038.305-.038.612-.056.935-1.678 42.368 18.08 61.995 41.083 70.619 30.28 11.363 66.16 3.657 66.16 3.657s38.67-11.329 60.919-5.987c22.248 5.325 49.492 27.468 74.21 20.58 24.718-6.887 16.987-24.134 26.848-35.99 6.989-8.405 40.266-18.874 51.451-39.934 7.36-12.396 21.954-43.665.211-68.724"/><path fill="#FFF" fill-rule="nonzero" d="M28.91 38.083c1.236-.187 2.28-.706 3.135-1.56.854-.853 1.448-1.971 1.783-3.356.23 1.42.753 2.539 1.571 3.356.818.817 1.934 1.339 3.348 1.56-1.472.546-2.588 1.198-3.348 1.958-.759.76-1.284 1.746-1.571 2.959a7.01 7.01 0 00-1.783-2.959c-.847-.847-1.892-1.5-3.135-1.958zm40.307 82.55c1.236-.187 2.28-.706 3.135-1.559.854-.854 1.448-1.973 1.782-3.358.23 1.421.754 2.54 1.572 3.358.818.817 1.933 1.338 3.347 1.558-1.471.547-2.588 1.199-3.347 1.959-.76.76-1.285 1.746-1.572 2.959a7.01 7.01 0 00-1.782-2.96c-.847-.847-1.892-1.499-3.135-1.958zm152.763 18.004c1.236-.187 2.28-.707 3.135-1.56.854-.853 1.448-1.973 1.784-3.358.228 1.423.752 2.54 1.57 3.358.818.817 1.934 1.339 3.348 1.56-1.472.546-2.588 1.198-3.348 1.957-.759.76-1.283 1.746-1.57 2.96a7.033 7.033 0 00-1.784-2.96c-.847-.848-1.892-1.5-3.135-1.957zM107.751 35.423c1.738-.263 3.207-.993 4.405-2.192 1.2-1.199 2.035-2.773 2.508-4.719.321 1.996 1.058 3.569 2.207 4.719 1.15 1.148 2.719 1.879 4.705 2.192-2.07.765-3.637 1.684-4.705 2.75-1.068 1.069-1.804 2.455-2.207 4.158a9.846 9.846 0 00-2.508-4.157c-1.19-1.19-2.658-2.108-4.405-2.751zm176.514 50.286c1.737-.264 3.206-.994 4.405-2.192 1.2-1.199 2.035-2.773 2.507-4.718.322 1.995 1.058 3.568 2.208 4.718 1.15 1.148 2.719 1.88 4.705 2.192-2.07.765-3.637 1.683-4.705 2.75-1.068 1.069-1.804 2.455-2.208 4.158a9.846 9.846 0 00-2.507-4.157c-1.19-1.19-2.658-2.108-4.405-2.751z"/><path fill="#0E97FF" fill-rule="nonzero" d="M219.187 81l18.78.786c.456 10.105-3.81 16.777-12.797 20.017-7.867 2.839-17.865 2.926-29.996.264-1.729-.38-1.495-1.928.35-2.188 12.783-1.794 23.147-2.673 23.663-18.879"/><path d="M195.633 98.628c-1.861.25-2.095 1.75-.352 2.119 12.238 2.578 22.325 2.493 30.263-.256 9.066-3.14 13.37-9.6 12.91-19.386l-18.948-.761c-.52 15.693-10.975 16.544-23.873 18.284z"/><path fill="#0091FF" fill-rule="nonzero" d="M180.766 53.101c10.96-9.823 18.892-15.392 23.8-16.704 5.04-1.349 10.827.74 17.36 6.266.458.387 1.816 1.562 4.074 3.52-8.334 9.682-13.527 12.865-15.577 9.547-1.536-2.488-3.026-4.033-4.467-4.636-3.759-1.568-11.764-.203-24.016 4.099-1.835.644-2.658-.762-1.174-2.092"/><path d="M205.389 37.654c-4.914 1.277-12.857 6.686-23.828 16.233-1.484 1.293-.662 2.66 1.176 2.034 12.266-4.18 20.28-5.509 24.043-3.983 1.441.585 2.933 2.087 4.472 4.505 2.052 3.224 7.25.132 15.594-9.278a745.453 745.453 0 00-4.079-3.421c-5.258-4.318-10.03-6.477-14.323-6.477a12.136 12.136 0 00-3.055.387z"/><path fill="#167CCE" fill-rule="nonzero" d="M220.28 41.638c.804.516 1.548 1.178 2.336 1.841.462.39 1.83 1.563 4.104 3.526-8.392 9.69-13.622 12.874-15.686 9.555-1.549-2.492-3.016-4.115-4.499-4.64-2.554-.904 10.752-12.21 13.745-10.282"/><path fill="#0091FF" fill-rule="nonzero" d="M198.754 75.647c2.528 6.758 38.172 13.036 71.704 2.046 33.533-10.99 50.778-30.81 48.534-40.313-2.243-9.504-30.518-17.433-64.05-6.445-33.533 10.99-58.717 37.954-56.188 44.712"/><path fill="#346672" fill-rule="nonzero" d="M212.92 55.243c-9.91 8.823-15.413 17.072-14.167 20.404 1.27 3.395 10.9 6.665 24.416 7.69-.577-1.552-7.694-20.65-10.248-28.094"/><path fill="#0271CA" fill-rule="nonzero" d="M198.754 75.647c1.064 2.844 11.796-11.291 28.896-23.943 15.531-11.495 37.21-21.297 44.695-24.953-.428.034-.75.063-.965.083-5.14.53-10.784 2.25-16.438 4.101-15.66 5.135-29.502 13.751-39.548 22.166-10.73 8.99-17.132 17.748-16.802 21.786.021.276.076.53.162.76"/><path fill="#2F5C63" fill-rule="nonzero" d="M215.28 61.893a488.567 488.567 0 01-2.358-6.648l-.088.078c-.58.519-1.149 1.035-1.699 1.548-.026.025-.05.05-.076.072a97.038 97.038 0 00-1.632 1.562l-.044.046a83.184 83.184 0 00-1.547 1.557l-.04.04c-.493.512-.972 1.02-1.43 1.522l-.065.07c-.447.49-.878.975-1.29 1.454l-.084.098c-.398.464-.782.923-1.146 1.374l-.128.161c-.342.427-.67.848-.98 1.26-.057.076-.107.148-.161.223-.288.387-.566.771-.824 1.144l-.182.276c-.235.349-.464.693-.672 1.03-.07.11-.129.217-.196.327-.185.307-.367.611-.528.905-.071.131-.13.254-.197.382-.136.263-.274.526-.391.779-.065.143-.116.275-.177.415-.096.225-.194.451-.273.666-.053.147-.09.286-.136.428-.06.19-.126.384-.17.563-.037.15-.054.287-.08.427-.028.16-.064.324-.08.474-.013.141-.007.267-.008.4-.002.133-.01.272 0 .396.025.262.074.506.156.725.776 2.076 6.718-4.907 16.526-13.754"/><path fill="#0271CA" fill-rule="nonzero" d="M301.353 62.458c12.894-9.28 19.034-19.171 17.64-25.078-1.417-6.001-13.217-11.367-30.159-11.747l12.52 36.825z"/><path fill="#D0D6E1" fill-rule="nonzero" d="M308.05 57.05c8.279-7.54 12.067-14.904 10.942-19.67-1.151-4.874-9.155-9.33-21.2-11.036L308.05 57.05z"/><path fill="#E3E6ED" fill-rule="nonzero" d="M316.238 33.235c-.792-.708-1.736-1.386-2.825-2.028-.93-.374-1.812-.393-2.497.217-2.437 2.17-4.606 6.828-7.282 12.407l4.417 13.22c7.702-7.017 11.511-13.875 11.099-18.634-.003-.04-.002-.078-.005-.114a7.289 7.289 0 00-.153-.923c-.039-.161-.104-.323-.157-.483-.415-1.04-1.407-2.466-2.597-3.662"/><path fill="#308BD4" fill-rule="nonzero" d="M308.05 57.05l-4.416-13.22-.002-.004c-1.518 3.16-3.197 6.614-5.184 10.084l2.905 8.548a83.877 83.877 0 002.573-1.935c.588-.459 1.16-.919 1.715-1.38l.394-.327a70.054 70.054 0 001.738-1.511l.149-.133c.044-.039.085-.08.129-.121"/><path fill="#32A7FF" fill-rule="nonzero" d="M301.353 62.458l-2.911-8.536c-5.272 9.208-12.695 18.506-24.93 22.603-.075.023-.187.062-.337.11l-2.716 1.058.053-.018c12.666-4.157 23-9.574 30.841-15.217"/><path fill="#F2F2F2" fill-rule="nonzero" d="M301.343 31.606a1.17 1.17 0 01-.87-1.402 1.16 1.16 0 112.262.525 1.16 1.16 0 01-1.392.877m2.092 6.478a1.168 1.168 0 01-.87-1.4 1.162 1.162 0 011.392-.877 1.17 1.17 0 01.87 1.402 1.162 1.162 0 01-1.392.875m2.353 5.34a1.167 1.167 0 01-.871-1.398 1.163 1.163 0 011.392-.878 1.17 1.17 0 01.871 1.401 1.161 1.161 0 01-1.392.876m1.222 5.08a1.169 1.169 0 01.52-2.277 1.168 1.168 0 01-.52 2.276m2.352 5.341a1.169 1.169 0 01.52-2.277 1.168 1.168 0 01-.52 2.277"/><path fill="#EAA844" fill-rule="nonzero" d="M186.21 71.41c4.784-3.013 7.83-2.98 10.965-1.055 3.133 1.925 5.563 8.554 3.053 12.695-1.461 2.408-7.946 3.488-12.616 3.073-3.114-.277-8.395-1.5-15.84-3.67 2.544-.743 4.314-1.534 5.306-2.366 3.916-3.286 6.349-6.923 9.132-8.677"/><g fill-rule="nonzero"><path fill="#6DC0FF" d="M235.908 68.938a8.162 8.162 0 009.786-6.13 8.17 8.17 0 00-6.125-9.796c-4.392-1.011-8.775 1.733-9.787 6.13-1.01 4.399 1.732 8.785 6.126 9.796m26.311.073c-8.787-2.024-14.272-10.796-12.249-19.592 2.022-8.795 10.786-14.285 19.573-12.258 8.788 2.024 14.273 10.795 12.25 19.589-2.023 8.797-10.786 14.285-19.574 12.261"/><path fill="#0B1C49" d="M262.742 66.737c7.533 1.734 15.044-2.972 16.778-10.51 1.733-7.538-2.967-15.057-10.5-16.792-7.531-1.736-15.043 2.969-16.777 10.508-1.734 7.538 2.968 15.058 10.5 16.794M236.168 67.8a6.998 6.998 0 008.39-5.253 7.006 7.006 0 00-5.251-8.398 6.996 6.996 0 00-8.388 5.255 7.003 7.003 0 005.249 8.396"/><path fill="#64799E" d="M233.879 65.696c1.238.375 2.123.579 2.652.61 3.755.216 5.967-1.66 6.777-5.191.98-4.257-1.999-3.442-2.815.104-.544 2.362-2.747 3.854-6.614 4.477m27.088-3.303c2.126.635 3.64.985 4.546 1.048 6.42.443 10.151-2.512 11.446-8.144 1.563-6.8-3.506-5.57-4.808.09-.868 3.775-4.595 6.11-11.184 7.006"/></g><path fill="#EFDBB8" fill-rule="nonzero" d="M190.974 72.504c3.157-1.908 5.176-1.87 7.264-.619 2.089 1.254 3.736 5.52 2.093 8.162-.955 1.535-7.281 2.073-12.226 1.931-3.295-.094-5.996-.541-8.105-1.342 2.328-2.009 3.82-3.277 4.475-3.806 2.578-2.086 4.662-3.216 6.5-4.326"/><path d="M191.795 72.605c-1.827 1.046-3.9 2.114-6.465 4.083-.65.5-2.134 1.697-4.45 3.593 2.097.757 4.784 1.18 8.061 1.27 4.918.131 11.21-.375 12.16-1.825 1.635-2.494-.004-6.523-2.081-7.706-.942-.536-1.87-.836-2.896-.836-1.236 0-2.613.436-4.33 1.42z"/><path fill="#0091FF" fill-rule="nonzero" d="M187.884 77.648c13.977-6.383 24.011-11.062 27.305-12.283 5.622-2.089 9.002-2.718 12.412-1.933 3.41.786 1.284 3.09.351 3.674-1.563 1.536-4.896 3.133-9.998 4.793-1.403.455-21.235 5.926-29.36 7.408-2.273.415-2.635-.78-.71-1.66"/><path fill="#41ADFF" fill-rule="nonzero" d="M227.6 63.431c-.498-.113-.999-.19-1.502-.243.285 2.557-8.732 8.873-8.732 8.873.005.003.01.005.013.009.274-.08.475-.14.574-.171 5.102-1.658 8.435-3.257 10-4.791.931-.585 3.057-2.89-.353-3.677"/><path fill="#F2F2F2" fill-rule="nonzero" d="M218.45 86.66a.714.714 0 01.255.064c.106.047 10.764 4.723 18.903 1.677a.715.715 0 11.506 1.336c-2.205.824-4.547 1.135-6.822 1.135-6.705 0-12.834-2.694-13.176-2.845a.718.718 0 01-.17-.107c-1.514.21-2.887.266-4.217.32-1.722.071-3.35.138-5.202.518-5.85 1.2-10.704 2.852-15.738 5.353-8.588 4.268-18.242 6.364-27.578 8.392l-2.452.533a.72.72 0 11-.307-1.406l2.454-.534c9.25-2.01 18.816-4.087 27.243-8.276 5.15-2.558 10.111-4.247 16.088-5.474 1.966-.405 3.73-.475 5.433-.544 1.329-.055 2.703-.111 4.193-.324.22-.03.433.043.586.183zm-13.447-33.425c.28-1.244 2.919-11.33 14.709-13.111a.714.714 0 11.216 1.411c-8.478 1.282-11.776 7.037-12.952 10.125-.068.885-.28 1.589-.634 2.112a.717.717 0 01-.22.28c-.259.287-.575.5-.947.643-1.826.695-.248.094-.371.14-19.454 7.366-40.179 11.54-59.688 14.952-6.612 1.158-13.42 2.03-20.006 2.873-13.005 1.668-26.451 3.391-39.014 7.383-5.32 1.692-10.362 3.695-14.982 5.949a.723.723 0 01-.963-.331.72.72 0 01.331-.963c4.683-2.287 9.791-4.314 15.178-6.028 12.687-4.032 26.2-5.763 39.267-7.439 6.568-.84 13.363-1.71 19.941-2.862 19.563-3.422 40.347-7.61 59.796-15.021.05-.018.179-.062.339-.113z"/><g fill-rule="nonzero"><path fill="#F5A522" d="M145.453 155.747c16.829-1.518 29.242-16.404 27.726-33.248-1.517-16.843-16.388-29.267-33.216-27.75-16.83 1.518-29.243 16.402-27.728 33.246 1.517 16.845 16.388 29.269 33.218 27.752"/><path fill="#E59A2E" d="M169.252 141.202a30.633 30.633 0 01-23.473 14.552c-16.86 1.508-31.758-10.843-33.278-27.584-.898-9.895 3.078-19.11 9.962-25.304a30.25 30.25 0 00-2.586 15.276c1.547 17.058 17.022 29.625 34.572 28.056 5.958-.535 10.293-1.808 14.803-4.996z"/><path fill="#FFF" d="M146.987 128.803c1.612.403 2.908 1.151 2.927 2.522.052 3.654-8.264 4.86-8.264 4.86l-.908-7.762s3.561-.291 6.245.38m-3.652-14.65c1.155.323 2.175.964 2.494 2.194.783 3.029-5.735 5.02-5.735 5.02l-.984-7.403s2.297-.348 4.225.19m1.648-9.313l-3.61.506-.032 3.848-4.39.193-.352-3.275-2.596.17.112 4.296-4.43 1.181.777 3.503 3.72-.99 2.246 23.34-4.192 1.004.343 3.953 5.74-.814 1.048 4.26 3.87-.38-1.017-4.42 4.063-.827.648 4.946 3.502-.175s.12-1.272-.306-4.995c3.906-.078 14.915-13.006-3.275-15.793 5.92-4.676 10.34-13.292-1.602-14.855-.468-4.882-.267-4.676-.267-4.676"/></g><g fill-rule="nonzero"><path fill="#9012FE" d="M38.712 105.435c7.381 8.469 20.243 9.362 28.73 1.997 8.484-7.366 9.381-20.203 2-28.673-7.38-8.47-20.243-9.364-28.728-1.997-8.486 7.367-9.382 20.204-2.002 28.673"/><path fill="#7F26DD" d="M58.44 72.243a20.516 20.516 0 00-9.29 4.618c-8.715 7.579-9.512 20.942-1.768 29.846 2.376 2.73 4.56 4.503 7.55 5.696-5.97.246-11.993-2.12-16.22-6.968-7.38-8.47-6.484-21.306 2.002-28.673 5.05-4.385 11.653-5.843 17.726-4.519z"/><path fill="#FFF" d="M48.512 88.236l1.161 6.906.002.013a.4.4 0 00.301.354l7.417 1.919a.228.228 0 01-.063.437c-3.614.796-7.201 1.66-11.257 1.434a.399.399 0 01-.442-.298.39.39 0 01-.007-.192c.932-3.621 1.62-7.371 2.342-11.101a.23.23 0 01.187-.179.23.23 0 01.267.186l.092.521zm15.017-4.874c-1.164 6.933-2.428 10.379-3.719 12.89l-.003.007a.41.41 0 01-.509.272l-7.869-2.357a.387.387 0 01-.18-.112.41.41 0 01-.101-.21l-.005-.02-1.667-7.963-.001-.007a.408.408 0 01.325-.474c4.466-.523 8.892-1.463 13.298-2.614a.4.4 0 01.431.589z"/></g></g></svg>